<svg width="24" height="24" viewBox="0 0 24 24" fill="none" xmlns="http://www.w3.org/2000/svg">
<path d="M5.9 10.2C5.9 9.70294 5.49706 9.3 5 9.3C4.50294 9.3 4.1 9.70294 4.1 10.2H5.9ZM18.9909 10.2C18.9909 9.70294 18.588 9.3 18.0909 9.3C17.5939 9.3 17.1909 9.70294 17.1909 10.2H18.9909ZM8.74063 20.1C8.24357 20.1 7.84063 20.5029 7.84063 21C7.84063 21.4971 8.24357 21.9 8.74063 21.9V20.1ZM14.351 21.9C14.8481 21.9 15.251 21.4971 15.251 21C15.251 20.5029 14.8481 20.1 14.351 20.1V21.9ZM11.5458 3.9C12.6308 3.9 13.451 4.738 13.451 5.7H15.251C15.251 3.67966 13.5594 2.1 11.5458 2.1V3.9ZM13.451 5.7V11.1H15.251V5.7H13.451ZM13.451 11.1C13.451 12.062 12.6308 12.9 11.5458 12.9V14.7C13.5594 14.7 15.251 13.1203 15.251 11.1H13.451ZM11.5458 12.9C10.4609 12.9 9.64063 12.062 9.64063 11.1H7.84063C7.84063 13.1203 9.53223 14.7 11.5458 14.7V12.9ZM9.64063 11.1V5.7H7.84063V11.1H9.64063ZM9.64063 5.7C9.64063 4.738 10.4609 3.9 11.5458 3.9V2.1C9.53223 2.1 7.84063 3.67966 7.84063 5.7H9.64063ZM4.1 10.2V11.1H5.9V10.2H4.1ZM4.1 11.1C4.1 15.1086 7.46618 18.3 11.5455 18.3V16.5C8.39483 16.5 5.9 14.0502 5.9 11.1H4.1ZM11.5455 18.3C15.6247 18.3 18.9909 15.1086 18.9909 11.1H17.1909C17.1909 14.0502 14.6961 16.5 11.5455 16.5V18.3ZM18.9909 11.1V10.2H17.1909V11.1H18.9909ZM10.6455 17.4001L10.6458 21.0001L12.4458 20.9999L12.4455 17.3999L10.6455 17.4001ZM11.5458 20.1H8.74063V21.9H11.5458V20.1ZM11.5458 21.9H14.351V20.1H11.5458V21.9Z" fill="currentColor"/>
</svg>
