<svg width="24" height="24" viewBox="0 0 24 24" fill="none" xmlns="http://www.w3.org/2000/svg">
<path d="M20.6232 7.9799C20.526 7.59162 20.3281 7.23586 20.0494 6.94856C19.7707 6.66125 19.4211 6.45258 19.036 6.34362C17.6288 6 12 6 12 6C12 6 6.3712 6 4.964 6.37634C4.57886 6.48531 4.22929 6.69398 3.95061 6.98128C3.67193 7.26858 3.474 7.62434 3.37681 8.01262C3.11927 9.44073 2.9933 10.8895 3.00047 12.3406C2.99129 13.8026 3.11727 15.2624 3.37681 16.7013C3.48395 17.0775 3.68632 17.4197 3.96435 17.6949C4.24239 17.97 4.58669 18.1689 4.964 18.2721C6.3712 18.6484 12 18.6484 12 18.6484C12 18.6484 17.6288 18.6484 19.036 18.2721C19.4211 18.1631 19.7707 17.9545 20.0494 17.6672C20.3281 17.3799 20.526 17.0241 20.6232 16.6358C20.8787 15.2185 21.0047 13.7808 20.9995 12.3406C21.0087 10.8785 20.8827 9.41876 20.6232 7.9799Z" stroke="currentColor" stroke-width="1.74397" stroke-linecap="round" stroke-linejoin="round"/>
<path d="M10.1593 15.0159L14.8636 12.3406L10.1593 9.66525V15.0159Z" stroke="currentColor" stroke-width="1.74397" stroke-linecap="round" stroke-linejoin="round"/>
</svg>
